# xmcd
#
# Track frame offsets:
#	150
#	17452
#	46287
#	70420
#	102692
#	129695
#	146220
#	165267
#	179777
#
# Disc length: 2871 seconds
#
# Revision: 1
# Processed by: cddbd v1.5.1PL0 Copyright (c) Steve Scherf et al.
# Submitted via: audiograbber 1.83.01
#
DISCID=840b3509
DTITLE=Walter Rossi - Six Strings Nine Lives
DYEAR=1978
DGENRE=Blues Rock
TTITLE0=Strada Del Sol
TTITLE1=Soldiers In The Night
TTITLE2=Proudest In The Land
TTITLE3=You Got Me Believing
TTITLE4=Malaguena ( revisted )
TTITLE5=Sil-O-Whet
TTITLE6=Slowdown Slowdown
TTITLE7=Mediterranean Romance
TTITLE8=Ride The Wind
EXTD=
EXTT0=
EXTT1=
EXTT2=
EXTT3=
EXTT4=
EXTT5=
EXTT6=
EXTT7=
EXTT8=
PLAYORDER=
